<mxfile host="app.diagrams.net" modified="2024-01-30T00:15:02.923Z" agent="Mozilla/5.0 (Macintosh; Intel Mac OS X 10_15_7) AppleWebKit/605.1.15 (KHTML, like Gecko) Version/17.0 Safari/605.1.15" version="23.0.2" etag="nYgqLWUWNTovM0GEfboW" type="github">
  <diagram name="페이지-1" id="2uD7vKDW4N7u1O4B7min">
    <mxGraphModel>
      <root>
        <mxCell id="0" />
        <mxCell id="1" parent="0" />
      </root>
    </mxGraphModel>
  </diagram>
</mxfile>
